/* XPM */
static char *_607857020853[] = {
/* columns rows colors chars-per-pixel */
"128 128 39 1 ",
"  c #2B230F",
". c #3B2F17",
"X c gray23",
"o c #43331B",
"O c #4B3B1B",
"+ c #573F1F",
"@ c #5F4323",
"# c #6F4B27",
"$ c #774F2B",
"% c #434343",
"& c #4B4B4B",
"* c #5B5B5B",
"= c #676767",
"- c #83532F",
"; c #875333",
": c #8B5B33",
"> c #935F37",
", c #9F633B",
"< c #A3673F",
"1 c #AB6B43",
"2 c #B77347",
"3 c #BF7B4B",
"4 c #CB7F4F",
"5 c #D38353",
"6 c #DF8B57",
"7 c #EB8F5B",
"8 c #F3975F",
"9 c #FFAB5F",
"0 c #FF9F63",
"q c #FFA773",
"w c #980088",
"e c #FFB383",
"r c #FFBB93",
"t c #FFBF9F",
"y c #FFC7A7",
"u c #FFCFB3",
"i c #FFD7BF",
"p c #FFDBC7",
"a c #FFE3D3",
/* pixels */
"wwwwwwwwwwwwwwwwwwwwwwwwwwwwwwwww111111111111<<,,,,,,,,,,>>::--------##@@wwwwwwwwwwwwwwwwwwwwwwwwwwwwwwwwwwwwwwwwwwwwwwwwwwwwwww",
"wwwwwwwwwwwwwwwwwwwwwwwwwwwwww111111111111111<<,,,,,,,,,,>>::--------$##@ooowwwwwwwwwwwwwwwwwwwwwwwwwwwwwwwwwwwwwwwwwwwwwwwwwwww",
"wwwwwwwwwwwwwwwwwwwwwwwwwww22224455554444332222221111<<<<,,>>::------$$#@+oooowwwwwwwwwwwwwwwwwwwwwwwwwwwwwwwwwwwwwwwwwwwwwwwwww",
"wwwwwwwwwwwwwwwwwwwwwwwww1122224455554444332222221111<<<<,,>>::------$$#@+Oooooowwwwwwwwwwwwwwwwwwwwwwwwwwwwwwwwwwwwwwwwwwwwwwww",
"wwwwwwwwwwwwwwwwwwwwwww1366778888886666665544443322221111<<,,>>::-----$#@+Ooooo...wwwwwwwwwwwwwwwwwwwwwwwwwwwwwwwwwwwwwwwwwwwwww",
"wwwwwwwwwwwwwwwwwwwwww13366778888886666665544443322221111<<,,>>::-----$#@+Ooooo....owwwwwwwwwwwwwwwwwwwwwwwwwwwwwwwwwwwwwwwwwwww",
"wwwwwwwwwwwwwwwwwwwww990000000000008877666655443322222211<<,,>>::-----$#@+Ooo........wwwwwwwwwwwwwwwwwwwwwwwwwwwwwwwwwwwwwwwwwww",
"wwwwwwwwwwwwwwwwwwww9990000000000008877666655443322222211<<,,>>::-----$#@+Ooo........owwwwwwwwwwwwwwwwwwwwwwwwwwwwwwwwwwwwwwwwww",
"wwwwwwwwwwwwwwwwwww668888888888888888886655443322221111<<,,>>::--$$--$$#@+Ooo........oowwwwwwwwwwwwwwwwwwwwwwwwwwwwwwwwwwwwwwwww",
"wwwwwwwwwwwwwwwwwww668888888888888888886655443322221111<<,,>>::--$$$$$##@OOoo........oowwwwwwwwwwwwwwwwwwwwwwwwwwwwwwwwwwwwwwwww",
"wwwwwwwwwwwwwwwwwww667777777777777777776655443322221111<<<<>>::--$$#$#@@Ooo..........oowwwwwwwwwwwwwwwwwwwwwwwwwwwwwwwwwwwwwwwww",
"wwwwwwwwwwwwwwwwwww656666666666666666665555443322221111<<<<>>::--$$##@@OOoo..........oowwwwwwwwwwwwwwwwwwwwwwwwwwwwwwwwwwwwwwwww",
"wwwwwwwwwwwwwwwwwww334455555555555555556655555543332221111<>>::;-$$@@+Ooo....ooooo...oowwwwwwwwwwwwwwwwwwwwwwwwwwwwwwwwwwwwwwwww",
"wwwwwwwwwwwwwwwwwwww34455555555555555555555667765443322111<,>:::;-$#@++oo...ooOOOOOo.oowwwwwwwwwwwwwwwwwwwwwwwwwwwwwwwwwwwwwwwww",
"wwwwwwwwwwwwwwwwwwww233334444444444544556667q0088775533221<,,>>>>:;-$##+oo.ooOOOOOOOoowwwwwwwwwwwwwwwwwwwwwwwwwwwwwwwwwwwwwwwwww",
"wwwwwwwwwwwwwwwwwwwww3333444444444333336670qq0088775533221<,,>>>>::--$##+OooOOOOOOO+Oowwwwwwwwwwwwwwwwwwwwwwwwwwwwwwwwwwwwwwwwww",
"wwwwwwwwwwwwwwwwwwwwww,<1223333342233356680ee0088765432221<,,>>>>::---$#@++OOOO++++Oowwwwwwwwwwwwwwwwwwwwwwwwwwwwwwwwwwwwwwwwwww",
"wwwwwwwwwwwwwwwwwwwwwww>>123333211233357680ee0088765422221<,,,>>>::---$#@++#+O++@+Oowwwwwwwwwwwwwwwwwwwwwwwwwwwwwwwwwwwwwwwwwwww",
"wwwwwwwwwwwwwwwwwwwwwwww->12222,,1233667800qq8776654422221<,,,,>>::---$#@@@#@+@@+Oowwwwwwwwwwwwwwwwwwwwwwwwwwwwwwwwwwwwwwwwwwwww",
"wwwwwwwwwwwwwwwwwwwwwwwww->122,,12233667800qq8776654422221<,,,,>>::---$#@@@$#+@+Oowwwwwwwwwwwwwwwwwwwwwwwwwwwwwwwwwwwwwwwwwwwwww",
"wwwwwwwwwwwwwwwwwwwwwwwwww-:>,,113335667880887776653322221<<<<,,>::---$##@@$$++Oowwwwwwwwwwwwwwwwwwwwwwwwwwwwwwwwwwwwwwwwwwwwwww",
"wwwwwwwwwwwwwwwwwwwwwwwwwww:><11133366676778877766644332211<<<,>>::---$##@@-:++Owwwwwwwwwwwwwwwwwwwwwwwwwwwwwwwwwwwwwwwwwwwwwwww",
"wwwwwwwwwwwwwwwwwwwwwwwwwwww-<11133566676778877767755433322111,,,>>:;--$#@@$-Oowwwwwwwwwwwwwwwwwwwwwwwwwwwwwwwwwwwwwwwwwwwwwwwww",
"wwwwwwwwwwwwwwwwwwwwwwwwwwwww<11233566676778888808776543333111<<<>>::--$#@+#$owwwwwwwwwwwwwwwwwwwwwwwwwwwwwwwwwwwwwwwwwwwwwwwwww",
"wwwwwwwwwwwwwwwwwwwwwwwwwwwww<11235566666778800008876553222111<<<>>;-$###++#$wwwwwwwwwwwwwwwwwwwwwwwwwwwwwwwwwwwwwwwwwwwwwwwwwww",
"wwwwwwwwwwwwwwwwwwwwwwwwwwwww<<123555556677qqq000776533221<1<,,>>::;-$###+O#$wwwwwwwwwwwwwwwwwwwwwwwwwwwwwwwwwwwwwwwwwwwwwwwwwww",
"wwwwwwwwwwwwwwwwwwwwwwwwwwwww<<224455557680qeq000764322111<<,>:::;-;-$###++#-wwwwwwwwwwwwwwwwwwwwwwwwwwwwwwwwwwwwwwwwwwwwwwwwwww",
"wwwwwwwwwwwwwwwwwwwwwwwwwwwww<22233556678000q0086543221111<<,,>>>::;---$#@@#-wwwwwwwwwwwwwwwwwwwwwwwwwwwwwwwwwwwwwwwwwwwwwwwwwww",
"wwwwwwwwwwwwwwwwwwwwwwwwwwwww1233445677780008876654222222111<<<,,>>::;-$#@@#-wwwwwwwwwwwwwwwwwwwwwwwwwwwwwwwwwwwwwwwwwwwwwwwwwww",
"wwwwwwwwwwwwwwwwwwwwwwwwwwwww1233446677780088776654322222111<<<<,>>::;-$#@@##wwwwwwwwwwwwwwwwwwwwwwwwwwwwwwwwwwwwwwwwwwwwwwwwwww",
"wwwwwwwwwwwwwwwwwwwwwwwwwwwww123355667678878877665433222222111<<<>>::-$##@+#-wwwwwwwwwwwwwwwwwwwwwwwwwwwwwwwwwwwwwwwwwwwwwwwwwww",
"wwwwwwwwwwwwwwwwwwwwwwwwwwwww233344556676778877666544333322111<<,>>:--$##@@$-wwwwwwwwwwwwwwwwwwwwwwwwwwwwwwwwwwwwwwwwwwwwwwwwwww",
"wwwwwwwwwwwwwwwwwwwwwwwwwwwww2322334455667788876676665532111<<,<,,>::;-$#@@#:wwwwwwwwwwwwwwwwwwwwwwwwwwwwwwwwwwwwwwwwwwwwwwwwwww",
"wwwwwwwwwwwwwwwwwwwwwwwwwwwww22222233456677800008887655321111<<,<>>::;-$#@+##wwwwwwwwwwwwwwwwwwwwwwwwwwwwwwwwwwwwwwwwwwwwwwwwwww",
"wwwwwwwwwwwwwwwwwwwwwwwwwwwww111122334576780q0000886543221<<,,>>:::;--$##@+#@wwwwwwwwwwwwwwwwwwwwwwwwwwwwwwwwwwwwwwwwwwwwwwwwwww",
"wwwwwwwwwwwwwwwwwwwwwwwwwwwww111122334577700q0000865432221<<,,>:::-;--$##@+##wwwwwwwwwwwwwwwwwwwwwwwwwwwwwwwwwwwwwwwwwwwwwwwwwww",
"wwwwwwwwwwwwwwwwwwwwwwwwwwwww111122334577000q0000886533221<<,,>:::-;-$$##@+##wwwwwwwwwwwwwwwwwwwwwwwwwwwwwwwwwwwwwwwwwwwwwwwwwww",
"wwwwwwwwwwwwwwwwwwwwwwwwwwwww111122334577800q0008886632221<<,,>:::-;-$$##@+##wwwwwwwwwwwwwwwwwwwwwwwwwwwwwwwwwwwwwwwwwwwwwwwwwww",
"wwwwwwwwwwwwwwwwwwwwwwwwwwwww111122335578000q0088765432221<<,,>:::-;-$$##@+#$wwwwwwwwwwwwwwwwwwwwwwwwwwwwwwwwwwwwwwwwwwwwwwwwwww",
"wwwwwwwwwwwwwwwwwwwwwwwwwwwww111122446678000q00887654332211<,,>:::-;-$$##@+##wwwwwwwwwwwwwwwwwwwwwwwwwwwwwwwwwwwwwwwwwwwwwwwwwww",
"wwwwwwwwwwwwwwwwwwwwwwwwwwwww222233567778000q00887765332211<,,>:::-;-$$##++#$wwwwwwwwwwwwwwwwwwwwwwwwwwwwwwwwwwwwwwwwwwwwwwwwwww",
"wwwwwwwwwwwwwwwwwwwwwwwwwwwww222244566678000q00887765332211<<,,>>:-;-$$##+O+#wwwwwwwwwwwwwwwwwwwwwwwwwwwwwwwwwwwwwwwwwwwwwwwwwww",
"wwwwwwwwwwwwwwwwwwwwwwwwwwwww332233445566000q0088765533221<<,,,>>:-;--$##+O+@wwwwwwwwwwwwwwwwwwwwwwwwwwwwwwwwwwwwwwwwwwwwwwwwwww",
"wwwwwwwwwwwwwwwwwwwwwwwwwwwww222222345566800q8766764432221<<,>:::::;--$##+O+#wwwwwwwwwwwwwwwwwwwwwwwwwwwwwwwwwwwwwwwwwwwwwwwwwww",
"wwwwwwwwwwwwwwwwwwwwwwwwwwwww11112234556677887766654322221<<,,,,,>>;--$#@+O+-wwwwwwwwwwwwwwwwwwwwwwwwwwwwwwwwwwwwwwwwwwwwwwwwwww",
"wwwwwwwwwwwwwwwwwwwwwwwwwwwww11222234556677888766765432221111<<,,>:;-$##@+O+@wwwwwwwwwwwwwwwwwwwwwwwwwwwwwwwwwwwwwwwwwwwwwwwwwww",
"wwwwwwwwwwwwwwwwwwwwwwwwwwwww22223344556677880088776644222211<,>>::;-$#@+OOO+wwwwwwwwwwwwwwwwwwwwwwwwwwwwwwwwwwwwwwwwwwwwwwwwwww",
"wwwwwwwwwwwwwwwwwwwwwwwwwwwww222233455576800q008888765533221<,>::;--$#@++OOO+wwwwwwwwwwwwwwwwwwwwwwwwwwwwwwwwwwwwwwwwwwwwwwwwwww",
"wwwwwwwwwwwwwwwwwwwwwwwwwwwww222233456578000q0088776533221<<,>:::;--#@@+OOOOOwwwwwwwwwwwwwwwwwwwwwwwwwwwwwwwwwwwwwwwwwwwwwwwwwww",
"wwwwwwwwwwwwwwwwwwwwwwwwwwwww22234466788800qq086665332211<,>:::;-$$#@@@+OOOO@wwwwwwwwwwwwwwwwwwwwwwwwwwwwwwwwwwwwwwwwwwwwwwwwwww",
"wwwwwwwwwwwwwwwwwwwwwwwwwwwww33335566788800qq076665332211<,>::-$####@@@@OOO@-wwwwwwwwwwwwwwwwwwwwwwwwwwwwwwwwwwwwwwwwwwwwwwwwwww",
"wwwwwwwwwwwwwwwwwwwwwwwwwwwww44545566778800qq07766533221<<,>--$$##$##@@@OO@$,wwwwwwwwwwwwwwwwwwwwwwwwwwwwwwwwwwwwwwwwwwwwwwwwwww",
"wwwwwwwwwwwwwwwwwwwwwwwwwwwww55445566778800qq07766533221<<,>:----::;-##@+@@$<wwwwwwwwwwwwwwwwwwwwwwwwwwwwwwwwwwwwwwwwwwwwwwwwwww",
"wwwwwwwwwwwwwwwwwwwwwwwwwwwww4423446677880qqq07766533221<<,>:::::>>>>:-$#@@$:wwwwwwwwwwwwwwwwwwwwwwwwwwwwwwwwwwwwwwwwwwwwwwwwwww",
"wwwwwwwwwwwwwwwwwwwwwwwwwwwww3322446677880qqq077665332211<<>::::>,,,>::-$@@#-wwwwwwwwwwwwwwwwwwwwwwwwwwwwwwwwwwwwwwwwwwwwwwwwwww",
"wwwwwwwwwwwwwwwwwwwwwwwwwwwww3322446677880qqq0776653322111<,>>>>,,,,,::;$@@#-wwwwwwwwwwwwwwwwwwwwwwwwwwwwwwwwwwwwwwwwwwwwwwwwwww",
"wwwwwwwwwwwwwwwwwwwwwwwwwwwww5322445677880qqqq876654322111<<,<,<,,,,,:;-#@@#-wwwwwwwwwwwwwwwwwwwwwwwwwwwwwwwwwwwwwwwwwwwwwwwwwww",
"wwwwwwwwwwwwwwwwwwwwwwwwwwwww5533335566780qqqq876665533221111<<<<,>>:;;$#@+#-wwwwwwwwwwwwwwwwwwwwwwwwwwwwwwwwwwwwwwwwwwwwwwwwwww",
"wwwwwwwwwwwwwwwwwwwwwwwwwwwww5533334566780qqqq876766533221111<<<<>>::--$#@+@#wwwwwwwwwwwwwwwwwwwwwwwwwwwwwwwwwwwwwwwwwwwwwwwwwww",
"wwwwwwwwwwwwwwwwwwwwwwwwwwwww5555554466780qqqq08877764422111<<,<,>:;-$###+OO@wwwwwwwwwwwwwwwwwwwwwwwwwwwwwwwwwwwwwwwwwwwwwwwwwww",
"wwwwwwwwwwwwwwwwwwwwwwwwwwwww111122335577880088887755443311,,,,>>--$$##+@OooOwwwwwwwwwwwwwwwwwwwwwwwwwwwwwwwwwwwwwwwwwwwwwwwwwww",
"wwwwwwwwwwwwwwwwwwwwwwwwwwwww+<<<112233666688666666442222<<::::--$$@@@@OOOooOwwwwwwwwwwwwwwwwwwwwwwwwwwwwwwwwwwwwwwwwwwwwwwwwwww",
"wwwwwwwwwwwwwwwwwwwwwwwwwwwwww@###->>>><<111111<<,,>>::--$$$$####@@++OOo.. wwwwwwwwwwwwwwwwwwwwwwwwwwwwwwwwwwwwwwwwwwwwwwwwwwwww",
"wwwwwwwwwwwwwwwwwwwwwwwwwwwwww@$,1122335566666655442211<<>>::----##@@OOo.. wwwwwwwwwwwwwwwwwwwwwwwwwwwwwwwwwwwwwwwwwwwwwwwwwwwww",
"wwwwwwwwwwwwwwwwwwwwwwwwwwwww4433558qetyuaaaaaauytreq0855331111<<,,::--$---::wwwwwwwwwwwwwwwwwwwwwwwwwwwwwwwwwwwwwwwwwwwwwwwwwww",
"wwwwwwwwwwwwwwwwwwwwwwwwwwwww11335568qetuiiiiiuytreq08655331111<<,,::--$----#wwwwwwwwwwwwwwwwwwwwwwwwwwwwwwwwwwwwwwwwwwwwwwwwwww",
"wwwwwwwwwwwwwwwwwwwwwwwwwwwww111233666666778877678876332211<<,,>>::--$$$$##-:wwwwwwwwwwwwwwwwwwwwwwwwwwwwwwwwwwwwwwwwwwwwwwwwwww",
"wwwwwwwwwwwwwwwwwwwwwwwwwwwww11123356666677887767887764332211<,,,>>::--$#@@$-wwwwwwwwwwwwwwwwwwwwwwwwwwwwwwwwwwwwwwwwwwwwwwwwwww",
"wwwwwwwwwwwwwwwwwwwwwwwwwwwww112233566666778888808876553333111<<<>>::-$$@@+##wwwwwwwwwwwwwwwwwwwwwwwwwwwwwwwwwwwwwwwwwwwwwwwwwww",
"wwwwwwwwwwwwwwwwwwwwwwwwwwwww112255566666778800008876553222111<<<>>;-$##@+O+@wwwwwwwwwwwwwwwwwwwwwwwwwwwwwwwwwwwwwwwwwwwwwwwwwww",
"wwwwwwwwwwwwwwwwwwwwwwwwwwwww11225555556677qqq000776533221<1<,,>>::;-$##@+O+$wwwwwwwwwwwwwwwwwwwwwwwwwwwwwwwwwwwwwwwwwwwwwwwwwww",
"wwwwwwwwwwwwwwwwwwwwwwwwwwwww11224455557680qeq000764322111<<,>:::;-;-$##@++#-wwwwwwwwwwwwwwwwwwwwwwwwwwwwwwwwwwwwwwwwwwwwwwwwwww",
"wwwwwwwwwwwwwwwwwwwwwwwwwwwww22224455667800qqq0q0653321111<,>>:::;-;--$###@$-wwwwwwwwwwwwwwwwwwwwwwwwwwwwwwwwwwwwwwwwwwwwwwwwwww",
"wwwwwwwwwwwwwwwwwwwwwwwwwwwww222233556678000q0086543221111<<,,>>>::;---$#@@$-wwwwwwwwwwwwwwwwwwwwwwwwwwwwwwwwwwwwwwwwwwwwwwwwwww",
"wwwwwwwwwwwwwwwwwwwwwwwwwwwww3333445677780008876654222222111<<<,,>>::;-$@@@@-wwwwwwwwwwwwwwwwwwwwwwwwwwwwwwwwwwwwwwwwwwwwwwwwwww",
"wwwwwwwwwwwwwwwwwwwwwwwwwwwww3333446677780088776654322222111<<<<,>>::;-$#+@+#wwwwwwwwwwwwwwwwwwwwwwwwwwwwwwwwwwwwwwwwwwwwwwwwwww",
"wwwwwwwwwwwwwwwwwwwwwwwwwwwww443355667678878877665433222222111<<<>>::-$#@++@-wwwwwwwwwwwwwwwwwwwwwwwwwwwwwwwwwwwwwwwwwwwwwwwwwww",
"wwwwwwwwwwwwwwwwwwwwwwwwwwwww333344556676778877666544333322111<<,>>:--$#@++#-wwwwwwwwwwwwwwwwwwwwwwwwwwwwwwwwwwwwwwwwwwwwwwwwwww",
"wwwwwwwwwwwwwwwwwwwwwwwwwwwww3322334455667788876676665532111<<,<,,>::;-$@+@#:wwwwwwwwwwwwwwwwwwwwwwwwwwwwwwwwwwwwwwwwwwwwwwwwwww",
"wwwwwwwwwwwwwwwwwwwwwwwwwwwww33222233456677888888887655321<<<<<<<,,>>::$@+@#-wwwwwwwwwwwwwwwwwwwwwwwwwwwwwwwwwwwwwwwwwwwwwwwwwww",
"wwwwwwwwwwwwwwwwwwwwwwwwwwwww22222233456677800008887655321<<<<<,<>>::;-$@+++#wwwwwwwwwwwwwwwwwwwwwwwwwwwwwwwwwwwwwwwwwwwwwwwwwww",
"wwwwwwwwwwwwwwwwwwwwwwwwwwwww111122334576780q0000886543221<<,,>>:::;--$@@+++@wwwwwwwwwwwwwwwwwwwwwwwwwwwwwwwwwwwwwwwwwwwwwwwwwww",
"wwwwwwwwwwwwwwwwwwwwwwwwwwwww111122334577700q0000865432221<<,,>::::;--$#@++++wwwwwwwwwwwwwwwwwwwwwwwwwwwwwwwwwwwwwwwwwwwwwwwwwww",
"wwwwwwwwwwwwwwwwwwwwwwwwwwwww111122334577000q0000886533221<<,,>::::;--$#@++++wwwwwwwwwwwwwwwwwwwwwwwwwwwwwwwwwwwwwwwwwwwwwwwwwww",
"wwwwwwwwwwwwwwwwwwwwwwwwwwwww111122334577800q0008886632221<<,,>::::;--$#@+++#wwwwwwwwwwwwwwwwwwwwwwwwwwwwwwwwwwwwwwwwwwwwwwwwwww",
"wwwwwwwwwwwwwwwwwwwwwwwwwwwww111122334577000q0008866433221<<,,>::::;--$#@+++$wwwwwwwwwwwwwwwwwwwwwwwwwwwwwwwwwwwwwwwwwwwwwwwwwww",
"wwwwwwwwwwwwwwwwwwwwwwwwwwwww111122335578000q0088765432221<<,,>::::;--$@@+++$wwwwwwwwwwwwwwwwwwwwwwwwwwwwwwwwwwwwwwwwwwwwwwwwwww",
"wwwwwwwwwwwwwwwwwwwwwwwwwwwww111122446678000q00887654332211<,,>::::;--$@@+++@wwwwwwwwwwwwwwwwwwwwwwwwwwwwwwwwwwwwwwwwwwwwwwwwwww",
"wwwwwwwwwwwwwwwwwwwwwwwwwwwww222233567778000q00887765332211<,,>::::;--$@@+++$wwwwwwwwwwwwwwwwwwwwwwwwwwwwwwwwwwwwwwwwwwwwwwwwwww",
"wwwwwwwwwwwwwwwwwwwwwwwwwwwww222244566678000q00887765332211<<,,>>::;--$@@+O+@wwwwwwwwwwwwwwwwwwwwwwwwwwwwwwwwwwwwwwwwwwwwwwwwwww",
"wwwwwwwwwwwwwwwwwwwwwwwwwwwww332233445566000q0088765533221<<,,,>>::;--$$@+O+#wwwwwwwwwwwwwwwwwwwwwwwwwwwwwwwwwwwwwwwwwwwwwwwwwww",
"wwwwwwwwwwwwwwwwwwwwwwwwwwwww222222345566800q8766764432221<<,>:::::;--$#$@@+#wwwwwwwwwwwwwwwwwwwwwwwwwwwwwwwwwwwwwwwwwwwwwwwwwww",
"wwwwwwwwwwwwwwwwwwwwwwwwwwwww22112234556677887766664322221<<,>:>>>>::--$#@@+:wwwwwwwwwwwwwwwwwwwwwwwwwwwwwwwwwwwwwwwwwwwwwwwwwww",
"wwwwwwwwwwwwwwwwwwwwwwwwwwwww11112234556677887766654322221<<,,,,,>>;--$##@@+-wwwwwwwwwwwwwwwwwwwwwwwwwwwwwwwwwwwwwwwwwwwwwwwwwww",
"wwwwwwwwwwwwwwwwwwwwwwwwwwwww11222234556677888766765432221111<<,,>:;-$##@+Oo@wwwwwwwwwwwwwwwwwwwwwwwwwwwwwwwwwwwwwwwwwwwwwwwwwww",
"wwwwwwwwwwwwwwwwwwwwwwwwwwwww22223344556677880088776644222211<,>>::;-$#@+Ooo+wwwwwwwwwwwwwwwwwwwwwwwwwwwwwwwwwwwwwwwwwwwwwwwwwww",
"wwwwwwwwwwwwwwwwwwwwwwwwwwwww222233455576800q008888765533221<,>::;--$#@++oo.+wwwwwwwwwwwwwwwwwwwwwwwwwwwwwwwwwwwwwwwwwwwwwwwwwww",
"wwwwwwwwwwwwwwwwwwwwwwwwwwwww222233456578000q0088776533221<<,>:::;--$#@+Oo..Owwwwwwwwwwwwwwwwwwwwwwwwwwwwwwwwwwwwwwwwwwwwwwwwwww",
"wwwwwwwwwwwwwwwwwwwwwwwwwwwww222233557778000q0866764322221<,>::::;-$##@+Oo..Owwwwwwwwwwwwwwwwwwwwwwwwwwwwwwwwwwwwwwwwwwwwwwwwwww",
"wwwwwwwwwwwwwwwwwwwwwwwwwwwww22234466788800qq076665332211<,>:::;--$#@#@+Oooo@wwwwwwwwwwwwwwwwwwwwwwwwwwwwwwwwwwwwwwwwwwwwwwwwwww",
"wwwwwwwwwwwwwwwwwwwwwwwwwwwww33335666788800qq076665332211<,>:::;--$#@#@+++@@-wwwwwwwwwwwwwwwwwwwwwwwwwwwwwwwwwwwwwwwwwwwwwwwwwww",
"wwwwwwwwwwwwwwwwwwwwwwwwwwwww44545666778800qq07666533221<<,>:::;--$$##@##@@$,wwwwwwwwwwwwwwwwwwwwwwwwwwwwwwwwwwwwwwwwwwwwwwwwwww",
"wwwwwwwwwwwwwwwwwwwwwwwwwwwww55445666778800qq07666533221<<,>:::::::;--$$#@@$<wwwwwwwwwwwwwwwwwwwwwwwwwwwwwwwwwwwwwwwwwwwwwwwwwww",
"wwwwwwwwwwwwwwwwwwwwwwwwwwwww4423466677880qqq07666533221<<,>:>:>:>>>>::-#@@$:wwwwwwwwwwwwwwwwwwwwwwwwwwwwwwwwwwwwwwwwwwwwwwwwwww",
"wwwwwwwwwwwwwwwwwwwwwwwwwwwww3322466677880qqq076665332211<<,,>,>,,,,,::;#@@#-wwwwwwwwwwwwwwwwwwwwwwwwwwwwwwwwwwwwwwwwwwwwwwwwwww",
"wwwwwwwwwwwwwwwwwwwwwwwwwwwww4422466677880qqq07666533221<<,,:>:>:,>,>::;#@@$:wwwwwwwwwwwwwwwwwwwwwwwwwwwwwwwwwwwwwwwwwwwwwwwwwww",
"wwwwwwwwwwwwwwwwwwwwwwwwwwwww3322466677880qqq0766653322111<,,,,,,,,,,::;#@@#-wwwwwwwwwwwwwwwwwwwwwwwwwwwwwwwwwwwwwwwwwwwwwwwwwww",
"wwwwwwwwwwwwwwwwwwwwwwwwwwwww3322445677880qqqq766654322111<<,<,<,,,,,::-#@@@-Owwwwwwwwwwwwwwwwwwwwwwwwwwwwwwwwwwwwwwwwwwwwwwwwww",
"wwwwwwwwwwwwwwwwwwwwwwwwwwwwe5533335566780qqqq766665533221111<<<<,>>:;-$#@@@@OOwwwwwwwwwwwwwwwwwwwwwwwwwwwwwwwwwwwwwwwwwwwwwwwww",
"wwwwwwwwwwwwwwwwwwwwwwwwwweet5533334566780qqqq866766533221111<<<<>>::--$#@@@@OOOOwwwwwwwwwwwwwwwwwwwwwwwwwwwwwwwwwwwwwwwwwwwwwww",
"wwwwwwwwwwwwwwwwwwwwwwwweeyteq755554466780qqqq08877764422111<<,<,>:;-$###+@@OOO++OOwwwwwwwwwwwwwwwwwwwwwwwwwwwwwwwwwwwwwwwwwwwww",
"wwwwwwwwwwwwwwwwwwwww7eeuutee0065555466780qqqq08877764422111<,,,,::;-###@++OOooOO++OOwwwwwwwwwwwwwwwwwwwwwwwwwwwwwwwwwwwwwwwwwww",
"wwwwwwwwwwwwwwwwwww55euutyeeee00885577788qqqqq088887643221<<,>:>:---$#@++OOO..o.oOO++OOwwwwwwwwwwwwwwwwwwwwwwwwwwwwwwwwwwwwwwwww",
"wwwwwwwwwwwwwwwwwww5<5etteeqq00qqqq877777qqqqq08888663322<<,,::::--$@@@++Oo.....ooO+O.Owwwwwwwwwwwwwwwwwwwwwwwwwwwwwwwwwwwwwwwww",
"wwwwwwwwwwwwwwwwwww2<<50eeqqqqqeeeerqqq00qq00087766332211<<,>::--$$@@++OOoo......oOo. O%%&&&&********=wwwwwwwwwwwwwwwwwwwwwwwwww",
"wwwwwwwwwwwwwwwwwww2<<137qqqqqqeeertryyttrq00887766332211<<>>::--$$@@++OOoo.....oO.   O%%%%&&********====wwwwwwwwwwwwwwwwwwwwwww",
"wwwwwwwwwwwwwwwwwww2<<1236800qqeryyyyppppuyeeqq00885522<<,,>>::--$$#@@@++oo.....      OXXXX%%&&&&&&*****===wwwwwwwwwwwwwwwwwwwww",
"wwwwwwwwwwwwwwwwwww2<<1234600qqeryyyyppppiueeqq00885522<<,,>>::--$$##@@++oo...        OXXXX%%%&&&&&******===wwwwwwwwwwwwwwwwwwww",
"wwwwwwwwwwwwwwwwwww2<<123456800eertyyuuiiiueeqq00885522<<,,>>::------$$@+Ooo.         OXXXXXXX%%%&&&&&*******wwwwwwwwwwwwwwwwwww",
"wwwwwwwwwwwwwwwwwww4<<12345667000eeyyuuiiuyeeqq00885522<<,,>>::------$$@+Ooo.        .OXXXXXXXX%%&&&&&&******wwwwwwwwwwwwwwwwwww",
"wwwwwwwwwwwwwwwwwwww3<1234566780000eetyyuyyrree00885522<<11,,,,>>::::$$@+Ooo.       .OXXXXXXXXX%%&&&&&&******wwwwwwwwwwwwwwwwwww",
"wwwwwwwwwwwwwwwwwwwww21234566780000eeeettyyrree00885522<<11,,,,>>::::$$@+Ooo.     .OOXXXXXXXXXX%%&&&&&****=**wwwwwwwwwwwwwwwwwww",
"wwwwwwwwwwwwwwwwwwwwww<3345667qq000qqeeeeqqqqqq8866332211<<,,>>::::--$$@+Ooo.   .OOXXXXXXXX%%%%%&&&&&******=wwwwwwwwwwwwwwwwwwww",
"wwwwwwwwwwwwwwwwwwwwwwww24566780000qqeeeeqqqqqq8866332211<<,,>>::::--$$@+Ooo...OOXXXXXXXXX%%%%%&&&&&****=**wwwwwwwwwwwwwwwwwwwww",
"wwwwwwwwwwwwwwwwwwwwwwwwww3667800qqqqeeeeeeqqqq885522<<<<,,>>::----$$##+++o..++XXXX%%%%%%&&&&&&&&******===wwwwwwwwwwwwwwwwwwwwww",
"wwwwwwwwwwwwwwwwwwwwwwwwwwww3668800qqeeeeeeqqqq885522<<<<,,>>::----$$##++++++X%%%%%&&&&&&&**********==*==wwwwwwwwwwwwwwwwwwwwwww",
"wwwwwwwwwwwwwwwwwwwwwwwwwwwwwww433668800qqeqq88665511,,,,>>::---------##@@X%%%%&&********===============wwwwwwwwwwwwwwwwwwwwwwww",
"wwwwwwwwwwwwwwwwwwwwwwwwwwwwwwwwww466eeeeeeqq88665511,,,,>>::--------XXXXXX%%%%&&********============wwwwwwwwwwwwwwwwwwwwwwwwwww"
};
